<svg width="52" height="83" viewBox="0 0 52 83" fill="none" xmlns="http://www.w3.org/2000/svg">
<path d="M26.7822 0C27.6691 18.6727 33.0799 45.7624 50.2383 58.1465L50.5381 57.8867C50.6316 58.1038 50.7196 58.3236 50.8047 58.5449C50.8702 58.5903 50.9342 58.6377 51 58.6826C50.9569 58.6927 50.9137 58.7035 50.8701 58.7139C51.6 60.6709 52 62.7886 52 65C52 74.9411 43.9411 83 34 83C31.126 83 28.4102 82.3247 26 81.127C23.5898 82.3247 20.874 83 18 83C8.05887 83 0 74.9411 0 65C0 62.7887 0.399119 60.6708 1.12891 58.7139C1.08568 58.7035 1.04277 58.6927 1 58.6826C1.06558 58.6379 1.12908 58.5901 1.19434 58.5449C1.27949 58.3234 1.36838 58.1039 1.46191 57.8867L1.76074 58.1465C18.9196 45.7626 24.3309 18.6729 25.2178 0V79.8398C25.269 79.8149 25.3192 79.7882 25.3701 79.7627L25.8486 79.3477C25.8986 79.3761 25.9497 79.4027 26 79.4307C26.0503 79.4027 26.1014 79.3761 26.1514 79.3477L26.6279 79.7617C26.6795 79.7875 26.7304 79.8146 26.7822 79.8398V0ZM2.58984 59.0938C1.8865 60.9276 1.5 62.9186 1.5 65C1.5 74.1127 8.8873 81.5 18 81.5C20.587 81.5 23.0337 80.9022 25.2129 79.8408C25.0851 68.2082 10.9756 61.4468 2.58984 59.0938ZM49.4092 59.0938C41.0233 61.447 26.9129 68.2086 26.7852 79.8408C28.9648 80.9027 31.4124 81.5 34 81.5C43.1127 81.5 50.5 74.1127 50.5 65C50.5 62.9185 50.1126 60.9277 49.4092 59.0938Z" fill="white"/>
</svg>
